<?xml version="1.0" encoding="us-ascii" standalone="no"?><svg xmlns="http://www.w3.org/2000/svg" xmlns:xlink="http://www.w3.org/1999/xlink" contentStyleType="text/css" height="732px" preserveAspectRatio="none" style="width:1570px;height:732px;background:#FFFFFF;" version="1.1" viewBox="0 0 1570 732" width="1570px" zoomAndPan="magnify"><defs/><g><!--cluster com--><g id="cluster_com"><path d="M8.5,6 L38.5,6 A3.75,3.75 0 0 1 41,8.5 L48,29.6094 L1560.5,29.6094 A2.5,2.5 0 0 1 1563,32.1094 L1563,425.5 A2.5,2.5 0 0 1 1560.5,428 L8.5,428 A2.5,2.5 0 0 1 6,425.5 L6,8.5 A2.5,2.5 0 0 1 8.5,6 " fill="none" style="stroke:#000000;stroke-width:1.5;"/><line style="stroke:#000000;stroke-width:1.5;" x1="6" x2="48" y1="29.6094" y2="29.6094"/><text fill="#000000" font-family="sans-serif" font-size="14" font-weight="bold" lengthAdjust="spacing" textLength="29" x="10" y="22.5332">com</text></g><!--cluster javax--><g id="cluster_javax"><path d="M669.5,489 L707.5,489 A3.75,3.75 0 0 1 710,491.5 L717,512.6094 L894.5,512.6094 A2.5,2.5 0 0 1 897,515.1094 L897,722.5 A2.5,2.5 0 0 1 894.5,725 L669.5,725 A2.5,2.5 0 0 1 667,722.5 L667,491.5 A2.5,2.5 0 0 1 669.5,489 " fill="none" style="stroke:#000000;stroke-width:1.5;"/><line style="stroke:#000000;stroke-width:1.5;" x1="667" x2="717" y1="512.6094" y2="512.6094"/><text fill="#000000" font-family="sans-serif" font-size="14" font-weight="bold" lengthAdjust="spacing" textLength="37" x="671" y="505.5332">javax</text></g><!--cluster servlet--><g id="cluster_servlet"><path d="M693.5,533 L744.5,533 A3.75,3.75 0 0 1 747,535.5 L754,556.6094 L870.5,556.6094 A2.5,2.5 0 0 1 873,559.1094 L873,698.5 A2.5,2.5 0 0 1 870.5,701 L693.5,701 A2.5,2.5 0 0 1 691,698.5 L691,535.5 A2.5,2.5 0 0 1 693.5,533 " fill="none" style="stroke:#000000;stroke-width:1.5;"/><line style="stroke:#000000;stroke-width:1.5;" x1="691" x2="754" y1="556.6094" y2="556.6094"/><text fill="#000000" font-family="sans-serif" font-size="14" font-weight="bold" lengthAdjust="spacing" textLength="50" x="695" y="549.5332">servlet</text></g><!--cluster http--><g id="cluster_http"><path d="M717.5,577 L746.5,577 A3.75,3.75 0 0 1 749,579.5 L756,600.6094 L846.5,600.6094 A2.5,2.5 0 0 1 849,603.1094 L849,674.5 A2.5,2.5 0 0 1 846.5,677 L717.5,677 A2.5,2.5 0 0 1 715,674.5 L715,579.5 A2.5,2.5 0 0 1 717.5,577 " fill="none" style="stroke:#000000;stroke-width:1.5;"/><line style="stroke:#000000;stroke-width:1.5;" x1="715" x2="756" y1="600.6094" y2="600.6094"/><text fill="#000000" font-family="sans-serif" font-size="14" font-weight="bold" lengthAdjust="spacing" textLength="28" x="719" y="593.5332">http</text></g><!--class Comment--><g id="elem_Comment"><rect codeLine="1" fill="#F1F1F1" height="48" id="Comment" rx="2.5" ry="2.5" style="stroke:#181818;stroke-width:0.5;" width="92" x="954" y="211.5"/><ellipse cx="969" cy="227.5" fill="#ADD1B2" rx="11" ry="11" style="stroke:#181818;stroke-width:1.0;"/><path d="M971.7656,223.375 Q971.9219,223.1563 972.1094,223.0469 Q972.2969,222.9375 972.5156,222.9375 Q972.8906,222.9375 973.125,223.2031 Q973.3594,223.4531 973.3594,224.0625 L973.3594,225.5156 Q973.3594,226.125 973.125,226.3906 Q972.8906,226.6563 972.5156,226.6563 Q972.1719,226.6563 971.9688,226.4531 Q971.7656,226.2656 971.6563,225.75 Q971.6094,225.3906 971.4219,225.2031 Q971.0938,224.8281 970.4844,224.6094 Q969.875,224.3906 969.25,224.3906 Q968.4844,224.3906 967.8438,224.7188 Q967.2188,225.0469 966.7188,225.7969 Q966.2344,226.5469 966.2344,227.5781 L966.2344,228.6719 Q966.2344,229.9063 967.125,230.7344 Q968.0156,231.5469 969.6094,231.5469 Q970.5469,231.5469 971.2031,231.2969 Q971.5938,231.1406 972.0156,230.7031 Q972.2813,230.4375 972.4219,230.3594 Q972.5781,230.2813 972.7813,230.2813 Q973.1094,230.2813 973.3594,230.5469 Q973.625,230.7969 973.625,231.1406 Q973.625,231.4844 973.2813,231.8906 Q972.7813,232.4688 971.9844,232.7969 Q970.9063,233.25 969.6094,233.25 Q968.0938,233.25 966.8906,232.625 Q965.9063,232.125 965.2188,231.0625 Q964.5313,229.9844 964.5313,228.7031 L964.5313,227.5469 Q964.5313,226.2188 965.1406,225.0781 Q965.7656,223.9219 966.8594,223.3125 Q967.9531,222.6875 969.1875,222.6875 Q969.9219,222.6875 970.5625,222.8594 Q971.2188,223.0156 971.7656,223.375 Z " fill="#000000"/><text fill="#000000" font-family="sans-serif" font-size="14" lengthAdjust="spacing" textLength="60" x="983" y="233.2285">Comment</text><line style="stroke:#181818;stroke-width:0.5;" x1="955" x2="1045" y1="243.5" y2="243.5"/><line style="stroke:#181818;stroke-width:0.5;" x1="955" x2="1045" y1="251.5" y2="251.5"/></g><!--class PointOfInterestType--><g id="elem_PointOfInterestType"><rect codeLine="2" fill="#F1F1F1" height="100.8281" id="PointOfInterestType" rx="2.5" ry="2.5" style="stroke:#181818;stroke-width:0.5;" width="158" x="1081" y="185"/><ellipse cx="1096" cy="201" fill="#EB937F" rx="11" ry="11" style="stroke:#181818;stroke-width:1.0;"/><path d="M1094.8594,201.7969 L1094.8594,204.2969 L1099.1875,204.2969 L1099.1875,203.375 Q1099.1875,202.7656 1099.4219,202.5 Q1099.6719,202.2344 1100.0469,202.2344 Q1100.4219,202.2344 1100.6563,202.5 Q1100.8906,202.7656 1100.8906,203.375 L1100.8906,206 L1092.8906,206 Q1092.2656,206 1092,205.7656 Q1091.75,205.5313 1091.75,205.1406 Q1091.75,204.7656 1092.0156,204.5313 Q1092.2813,204.2969 1092.8906,204.2969 L1093.1563,204.2969 L1093.1563,197.6406 L1092.8906,197.6406 Q1092.2656,197.6406 1092,197.4063 Q1091.75,197.1719 1091.75,196.7813 Q1091.75,196.4063 1092,196.1719 Q1092.2656,195.9375 1092.8906,195.9375 L1100.5156,195.9375 L1100.5156,198.5313 Q1100.5156,199.1406 1100.2813,199.4063 Q1100.0625,199.6563 1099.6719,199.6563 Q1099.2969,199.6563 1099.0625,199.4063 Q1098.8281,199.1406 1098.8281,198.5313 L1098.8281,197.6406 L1094.8594,197.6406 L1094.8594,200.0938 L1096.3438,200.0938 Q1096.3438,199.4375 1096.4688,199.25 Q1096.7344,198.8438 1097.2031,198.8438 Q1097.5781,198.8438 1097.8125,199.1094 Q1098.0469,199.3594 1098.0469,199.9688 L1098.0469,201.9375 Q1098.0469,202.4844 1097.9219,202.6719 Q1097.6563,203.0625 1097.2031,203.0625 Q1096.7344,203.0625 1096.4688,202.6563 Q1096.3438,202.4688 1096.3438,201.7969 L1094.8594,201.7969 Z " fill="#000000"/><text fill="#000000" font-family="sans-serif" font-size="14" lengthAdjust="spacing" textLength="126" x="1110" y="206.7285">PointOfInterestType</text><line style="stroke:#181818;stroke-width:0.5;" x1="1082" x2="1238" y1="217" y2="217"/><text fill="#000000" font-family="sans-serif" font-size="14" lengthAdjust="spacing" textLength="67" x="1087" y="235.5332">HOSPITAL</text><text fill="#000000" font-family="sans-serif" font-size="14" lengthAdjust="spacing" textLength="92" x="1087" y="253.1426">RESTUARANT</text><text fill="#000000" font-family="sans-serif" font-size="14" lengthAdjust="spacing" textLength="58" x="1087" y="270.752">SCHOOL</text><line style="stroke:#181818;stroke-width:0.5;" x1="1082" x2="1238" y1="277.8281" y2="277.8281"/></g><!--class PointOfInterest--><g id="elem_PointOfInterest"><rect codeLine="7" fill="#F1F1F1" height="83.2188" id="PointOfInterest" rx="2.5" ry="2.5" style="stroke:#181818;stroke-width:0.5;" width="182" x="959" y="42"/><ellipse cx="999.2" cy="58" fill="#ADD1B2" rx="11" ry="11" style="stroke:#181818;stroke-width:1.0;"/><path d="M1001.9656,53.875 Q1002.1219,53.6563 1002.3094,53.5469 Q1002.4969,53.4375 1002.7156,53.4375 Q1003.0906,53.4375 1003.325,53.7031 Q1003.5594,53.9531 1003.5594,54.5625 L1003.5594,56.0156 Q1003.5594,56.625 1003.325,56.8906 Q1003.0906,57.1563 1002.7156,57.1563 Q1002.3719,57.1563 1002.1688,56.9531 Q1001.9656,56.7656 1001.8563,56.25 Q1001.8094,55.8906 1001.6219,55.7031 Q1001.2938,55.3281 1000.6844,55.1094 Q1000.075,54.8906 999.45,54.8906 Q998.6844,54.8906 998.0438,55.2188 Q997.4188,55.5469 996.9188,56.2969 Q996.4344,57.0469 996.4344,58.0781 L996.4344,59.1719 Q996.4344,60.4063 997.325,61.2344 Q998.2156,62.0469 999.8094,62.0469 Q1000.7469,62.0469 1001.4031,61.7969 Q1001.7938,61.6406 1002.2156,61.2031 Q1002.4813,60.9375 1002.6219,60.8594 Q1002.7781,60.7813 1002.9813,60.7813 Q1003.3094,60.7813 1003.5594,61.0469 Q1003.825,61.2969 1003.825,61.6406 Q1003.825,61.9844 1003.4813,62.3906 Q1002.9813,62.9688 1002.1844,63.2969 Q1001.1063,63.75 999.8094,63.75 Q998.2938,63.75 997.0906,63.125 Q996.1063,62.625 995.4188,61.5625 Q994.7313,60.4844 994.7313,59.2031 L994.7313,58.0469 Q994.7313,56.7188 995.3406,55.5781 Q995.9656,54.4219 997.0594,53.8125 Q998.1531,53.1875 999.3875,53.1875 Q1000.1219,53.1875 1000.7625,53.3594 Q1001.4188,53.5156 1001.9656,53.875 Z " fill="#000000"/><text fill="#000000" font-family="sans-serif" font-size="14" lengthAdjust="spacing" textLength="94" x="1018.8" y="63.7285">PointOfInterest</text><line style="stroke:#181818;stroke-width:0.5;" x1="960" x2="1140" y1="74" y2="74"/><text fill="#000000" font-family="sans-serif" font-size="14" lengthAdjust="spacing" textLength="170" x="965" y="92.5332">List&lt;Comment&gt;: comments</text><text fill="#000000" font-family="sans-serif" font-size="14" lengthAdjust="spacing" textLength="161" x="965" y="110.1426">PointOfInterestType: type</text><line style="stroke:#181818;stroke-width:0.5;" x1="960" x2="1140" y1="117.2188" y2="117.2188"/></g><!--class DatabaseConnection--><g id="elem_DatabaseConnection"><rect codeLine="11" fill="#F1F1F1" height="48" id="DatabaseConnection" rx="2.5" ry="2.5" style="stroke:#181818;stroke-width:0.5;" width="165" x="699.5" y="59.5"/><ellipse cx="714.5" cy="75.5" fill="#ADD1B2" rx="11" ry="11" style="stroke:#181818;stroke-width:1.0;"/><path d="M717.2656,71.375 Q717.4219,71.1563 717.6094,71.0469 Q717.7969,70.9375 718.0156,70.9375 Q718.3906,70.9375 718.625,71.2031 Q718.8594,71.4531 718.8594,72.0625 L718.8594,73.5156 Q718.8594,74.125 718.625,74.3906 Q718.3906,74.6563 718.0156,74.6563 Q717.6719,74.6563 717.4688,74.4531 Q717.2656,74.2656 717.1563,73.75 Q717.1094,73.3906 716.9219,73.2031 Q716.5938,72.8281 715.9844,72.6094 Q715.375,72.3906 714.75,72.3906 Q713.9844,72.3906 713.3438,72.7188 Q712.7188,73.0469 712.2188,73.7969 Q711.7344,74.5469 711.7344,75.5781 L711.7344,76.6719 Q711.7344,77.9063 712.625,78.7344 Q713.5156,79.5469 715.1094,79.5469 Q716.0469,79.5469 716.7031,79.2969 Q717.0938,79.1406 717.5156,78.7031 Q717.7813,78.4375 717.9219,78.3594 Q718.0781,78.2813 718.2813,78.2813 Q718.6094,78.2813 718.8594,78.5469 Q719.125,78.7969 719.125,79.1406 Q719.125,79.4844 718.7813,79.8906 Q718.2813,80.4688 717.4844,80.7969 Q716.4063,81.25 715.1094,81.25 Q713.5938,81.25 712.3906,80.625 Q711.4063,80.125 710.7188,79.0625 Q710.0313,77.9844 710.0313,76.7031 L710.0313,75.5469 Q710.0313,74.2188 710.6406,73.0781 Q711.2656,71.9219 712.3594,71.3125 Q713.4531,70.6875 714.6875,70.6875 Q715.4219,70.6875 716.0625,70.8594 Q716.7188,71.0156 717.2656,71.375 Z " fill="#000000"/><text fill="#000000" font-family="sans-serif" font-size="14" lengthAdjust="spacing" textLength="133" x="728.5" y="81.2285">DatabaseConnection</text><line style="stroke:#181818;stroke-width:0.5;" x1="700.5" x2="863.5" y1="91.5" y2="91.5"/><line style="stroke:#181818;stroke-width:0.5;" x1="700.5" x2="863.5" y1="99.5" y2="99.5"/></g><!--class PointOfInterestService--><g id="elem_PointOfInterestService"><rect codeLine="12" fill="#F1F1F1" height="48" id="PointOfInterestService" rx="2.5" ry="2.5" style="stroke:#181818;stroke-width:0.5;" width="173" x="695.5" y="211.5"/><ellipse cx="710.5" cy="227.5" fill="#ADD1B2" rx="11" ry="11" style="stroke:#181818;stroke-width:1.0;"/><path d="M713.2656,223.375 Q713.4219,223.1563 713.6094,223.0469 Q713.7969,222.9375 714.0156,222.9375 Q714.3906,222.9375 714.625,223.2031 Q714.8594,223.4531 714.8594,224.0625 L714.8594,225.5156 Q714.8594,226.125 714.625,226.3906 Q714.3906,226.6563 714.0156,226.6563 Q713.6719,226.6563 713.4688,226.4531 Q713.2656,226.2656 713.1563,225.75 Q713.1094,225.3906 712.9219,225.2031 Q712.5938,224.8281 711.9844,224.6094 Q711.375,224.3906 710.75,224.3906 Q709.9844,224.3906 709.3438,224.7188 Q708.7188,225.0469 708.2188,225.7969 Q707.7344,226.5469 707.7344,227.5781 L707.7344,228.6719 Q707.7344,229.9063 708.625,230.7344 Q709.5156,231.5469 711.1094,231.5469 Q712.0469,231.5469 712.7031,231.2969 Q713.0938,231.1406 713.5156,230.7031 Q713.7813,230.4375 713.9219,230.3594 Q714.0781,230.2813 714.2813,230.2813 Q714.6094,230.2813 714.8594,230.5469 Q715.125,230.7969 715.125,231.1406 Q715.125,231.4844 714.7813,231.8906 Q714.2813,232.4688 713.4844,232.7969 Q712.4063,233.25 711.1094,233.25 Q709.5938,233.25 708.3906,232.625 Q707.4063,232.125 706.7188,231.0625 Q706.0313,229.9844 706.0313,228.7031 L706.0313,227.5469 Q706.0313,226.2188 706.6406,225.0781 Q707.2656,223.9219 708.3594,223.3125 Q709.4531,222.6875 710.6875,222.6875 Q711.4219,222.6875 712.0625,222.8594 Q712.7188,223.0156 713.2656,223.375 Z " fill="#000000"/><text fill="#000000" font-family="sans-serif" font-size="14" lengthAdjust="spacing" textLength="141" x="724.5" y="233.2285">PointOfInterestService</text><line style="stroke:#181818;stroke-width:0.5;" x1="696.5" x2="867.5" y1="243.5" y2="243.5"/><line style="stroke:#181818;stroke-width:0.5;" x1="696.5" x2="867.5" y1="251.5" y2="251.5"/></g><!--class PointOfInterestsServlet--><g id="elem_PointOfInterestsServlet"><rect codeLine="13" fill="#F1F1F1" height="65.6094" id="PointOfInterestsServlet" rx="2.5" ry="2.5" style="stroke:#181818;stroke-width:0.5;" width="483" x="22.5" y="346"/><ellipse cx="187.25" cy="362" fill="#ADD1B2" rx="11" ry="11" style="stroke:#181818;stroke-width:1.0;"/><path d="M190.0156,357.875 Q190.1719,357.6563 190.3594,357.5469 Q190.5469,357.4375 190.7656,357.4375 Q191.1406,357.4375 191.375,357.7031 Q191.6094,357.9531 191.6094,358.5625 L191.6094,360.0156 Q191.6094,360.625 191.375,360.8906 Q191.1406,361.1563 190.7656,361.1563 Q190.4219,361.1563 190.2188,360.9531 Q190.0156,360.7656 189.9063,360.25 Q189.8594,359.8906 189.6719,359.7031 Q189.3438,359.3281 188.7344,359.1094 Q188.125,358.8906 187.5,358.8906 Q186.7344,358.8906 186.0938,359.2188 Q185.4688,359.5469 184.9688,360.2969 Q184.4844,361.0469 184.4844,362.0781 L184.4844,363.1719 Q184.4844,364.4063 185.375,365.2344 Q186.2656,366.0469 187.8594,366.0469 Q188.7969,366.0469 189.4531,365.7969 Q189.8438,365.6406 190.2656,365.2031 Q190.5313,364.9375 190.6719,364.8594 Q190.8281,364.7813 191.0313,364.7813 Q191.3594,364.7813 191.6094,365.0469 Q191.875,365.2969 191.875,365.6406 Q191.875,365.9844 191.5313,366.3906 Q191.0313,366.9688 190.2344,367.2969 Q189.1563,367.75 187.8594,367.75 Q186.3438,367.75 185.1406,367.125 Q184.1563,366.625 183.4688,365.5625 Q182.7813,364.4844 182.7813,363.2031 L182.7813,362.0469 Q182.7813,360.7188 183.3906,359.5781 Q184.0156,358.4219 185.1094,357.8125 Q186.2031,357.1875 187.4375,357.1875 Q188.1719,357.1875 188.8125,357.3594 Q189.4688,357.5156 190.0156,357.875 Z " fill="#000000"/><text fill="#000000" font-family="sans-serif" font-size="14" lengthAdjust="spacing" textLength="145" x="207.75" y="367.7285">PointOfInterestsServlet</text><line style="stroke:#181818;stroke-width:0.5;" x1="23.5" x2="504.5" y1="378" y2="378"/><line style="stroke:#181818;stroke-width:0.5;" x1="23.5" x2="504.5" y1="386" y2="386"/><polygon fill="#FFFF44" points="33.5,395.3047,37.5,399.3047,33.5,403.3047,29.5,399.3047" style="stroke:#B38D22;stroke-width:1.0;"/><text fill="#000000" font-family="sans-serif" font-size="14" lengthAdjust="spacing" textLength="457" x="42.5" y="404.5332">void doGet(HttpServletRequest request, HttpServletResponse response)</text></g><!--class PointOfInterestServlet--><g id="elem_PointOfInterestServlet"><rect codeLine="16" fill="#F1F1F1" height="65.6094" id="PointOfInterestServlet" rx="2.5" ry="2.5" style="stroke:#181818;stroke-width:0.5;" width="483" x="540.5" y="346"/><ellipse cx="708.75" cy="362" fill="#ADD1B2" rx="11" ry="11" style="stroke:#181818;stroke-width:1.0;"/><path d="M711.5156,357.875 Q711.6719,357.6563 711.8594,357.5469 Q712.0469,357.4375 712.2656,357.4375 Q712.6406,357.4375 712.875,357.7031 Q713.1094,357.9531 713.1094,358.5625 L713.1094,360.0156 Q713.1094,360.625 712.875,360.8906 Q712.6406,361.1563 712.2656,361.1563 Q711.9219,361.1563 711.7188,360.9531 Q711.5156,360.7656 711.4063,360.25 Q711.3594,359.8906 711.1719,359.7031 Q710.8438,359.3281 710.2344,359.1094 Q709.625,358.8906 709,358.8906 Q708.2344,358.8906 707.5938,359.2188 Q706.9688,359.5469 706.4688,360.2969 Q705.9844,361.0469 705.9844,362.0781 L705.9844,363.1719 Q705.9844,364.4063 706.875,365.2344 Q707.7656,366.0469 709.3594,366.0469 Q710.2969,366.0469 710.9531,365.7969 Q711.3438,365.6406 711.7656,365.2031 Q712.0313,364.9375 712.1719,364.8594 Q712.3281,364.7813 712.5313,364.7813 Q712.8594,364.7813 713.1094,365.0469 Q713.375,365.2969 713.375,365.6406 Q713.375,365.9844 713.0313,366.3906 Q712.5313,366.9688 711.7344,367.2969 Q710.6563,367.75 709.3594,367.75 Q707.8438,367.75 706.6406,367.125 Q705.6563,366.625 704.9688,365.5625 Q704.2813,364.4844 704.2813,363.2031 L704.2813,362.0469 Q704.2813,360.7188 704.8906,359.5781 Q705.5156,358.4219 706.6094,357.8125 Q707.7031,357.1875 708.9375,357.1875 Q709.6719,357.1875 710.3125,357.3594 Q710.9688,357.5156 711.5156,357.875 Z " fill="#000000"/><text fill="#000000" font-family="sans-serif" font-size="14" lengthAdjust="spacing" textLength="138" x="729.25" y="367.7285">PointOfInterestServlet</text><line style="stroke:#181818;stroke-width:0.5;" x1="541.5" x2="1022.5" y1="378" y2="378"/><line style="stroke:#181818;stroke-width:0.5;" x1="541.5" x2="1022.5" y1="386" y2="386"/><polygon fill="#FFFF44" points="551.5,395.3047,555.5,399.3047,551.5,403.3047,547.5,399.3047" style="stroke:#B38D22;stroke-width:1.0;"/><text fill="#000000" font-family="sans-serif" font-size="14" lengthAdjust="spacing" textLength="457" x="560.5" y="404.5332">void doGet(HttpServletRequest request, HttpServletResponse response)</text></g><!--class CommentServlet--><g id="elem_CommentServlet"><rect codeLine="19" fill="#F1F1F1" height="65.6094" id="CommentServlet" rx="2.5" ry="2.5" style="stroke:#181818;stroke-width:0.5;" width="488" x="1059" y="346"/><ellipse cx="1246.75" cy="362" fill="#ADD1B2" rx="11" ry="11" style="stroke:#181818;stroke-width:1.0;"/><path d="M1249.5156,357.875 Q1249.6719,357.6563 1249.8594,357.5469 Q1250.0469,357.4375 1250.2656,357.4375 Q1250.6406,357.4375 1250.875,357.7031 Q1251.1094,357.9531 1251.1094,358.5625 L1251.1094,360.0156 Q1251.1094,360.625 1250.875,360.8906 Q1250.6406,361.1563 1250.2656,361.1563 Q1249.9219,361.1563 1249.7188,360.9531 Q1249.5156,360.7656 1249.4063,360.25 Q1249.3594,359.8906 1249.1719,359.7031 Q1248.8438,359.3281 1248.2344,359.1094 Q1247.625,358.8906 1247,358.8906 Q1246.2344,358.8906 1245.5938,359.2188 Q1244.9688,359.5469 1244.4688,360.2969 Q1243.9844,361.0469 1243.9844,362.0781 L1243.9844,363.1719 Q1243.9844,364.4063 1244.875,365.2344 Q1245.7656,366.0469 1247.3594,366.0469 Q1248.2969,366.0469 1248.9531,365.7969 Q1249.3438,365.6406 1249.7656,365.2031 Q1250.0313,364.9375 1250.1719,364.8594 Q1250.3281,364.7813 1250.5313,364.7813 Q1250.8594,364.7813 1251.1094,365.0469 Q1251.375,365.2969 1251.375,365.6406 Q1251.375,365.9844 1251.0313,366.3906 Q1250.5313,366.9688 1249.7344,367.2969 Q1248.6563,367.75 1247.3594,367.75 Q1245.8438,367.75 1244.6406,367.125 Q1243.6563,366.625 1242.9688,365.5625 Q1242.2813,364.4844 1242.2813,363.2031 L1242.2813,362.0469 Q1242.2813,360.7188 1242.8906,359.5781 Q1243.5156,358.4219 1244.6094,357.8125 Q1245.7031,357.1875 1246.9375,357.1875 Q1247.6719,357.1875 1248.3125,357.3594 Q1248.9688,357.5156 1249.5156,357.875 Z " fill="#000000"/><text fill="#000000" font-family="sans-serif" font-size="14" lengthAdjust="spacing" textLength="104" x="1267.25" y="367.7285">CommentServlet</text><line style="stroke:#181818;stroke-width:0.5;" x1="1060" x2="1546" y1="378" y2="378"/><line style="stroke:#181818;stroke-width:0.5;" x1="1060" x2="1546" y1="386" y2="386"/><polygon fill="#FFFF44" points="1070,395.3047,1074,399.3047,1070,403.3047,1066,399.3047" style="stroke:#B38D22;stroke-width:1.0;"/><text fill="#000000" font-family="sans-serif" font-size="14" lengthAdjust="spacing" textLength="462" x="1079" y="404.5332">void doPost(HttpServletRequest request, HttpServletResponse response)</text></g><!--class HttpServlet--><g id="elem_HttpServlet"><rect fill="#F1F1F1" height="48" id="HttpServlet" rx="2.5" ry="2.5" style="stroke:#181818;stroke-width:0.5;" width="101" x="731.5" y="613"/><ellipse cx="746.5" cy="629" fill="#ADD1B2" rx="11" ry="11" style="stroke:#181818;stroke-width:1.0;"/><path d="M749.2656,624.875 Q749.4219,624.6563 749.6094,624.5469 Q749.7969,624.4375 750.0156,624.4375 Q750.3906,624.4375 750.625,624.7031 Q750.8594,624.9531 750.8594,625.5625 L750.8594,627.0156 Q750.8594,627.625 750.625,627.8906 Q750.3906,628.1563 750.0156,628.1563 Q749.6719,628.1563 749.4688,627.9531 Q749.2656,627.7656 749.1563,627.25 Q749.1094,626.8906 748.9219,626.7031 Q748.5938,626.3281 747.9844,626.1094 Q747.375,625.8906 746.75,625.8906 Q745.9844,625.8906 745.3438,626.2188 Q744.7188,626.5469 744.2188,627.2969 Q743.7344,628.0469 743.7344,629.0781 L743.7344,630.1719 Q743.7344,631.4063 744.625,632.2344 Q745.5156,633.0469 747.1094,633.0469 Q748.0469,633.0469 748.7031,632.7969 Q749.0938,632.6406 749.5156,632.2031 Q749.7813,631.9375 749.9219,631.8594 Q750.0781,631.7813 750.2813,631.7813 Q750.6094,631.7813 750.8594,632.0469 Q751.125,632.2969 751.125,632.6406 Q751.125,632.9844 750.7813,633.3906 Q750.2813,633.9688 749.4844,634.2969 Q748.4063,634.75 747.1094,634.75 Q745.5938,634.75 744.3906,634.125 Q743.4063,633.625 742.7188,632.5625 Q742.0313,631.4844 742.0313,630.2031 L742.0313,629.0469 Q742.0313,627.7188 742.6406,626.5781 Q743.2656,625.4219 744.3594,624.8125 Q745.4531,624.1875 746.6875,624.1875 Q747.4219,624.1875 748.0625,624.3594 Q748.7188,624.5156 749.2656,624.875 Z " fill="#000000"/><text fill="#000000" font-family="sans-serif" font-size="14" lengthAdjust="spacing" textLength="69" x="760.5" y="634.7285">HttpServlet</text><line style="stroke:#181818;stroke-width:0.5;" x1="732.5" x2="831.5" y1="645" y2="645"/><line style="stroke:#181818;stroke-width:0.5;" x1="732.5" x2="831.5" y1="653" y2="653"/></g><!--reverse link PointOfInterest to PointOfInterestType--><g id="link_PointOfInterest_PointOfInterestType"><path codeLine="22" d="M1086.8652,134.7677 C1100.3552,153.1677 1109.33,165.41 1123.54,184.78 " fill="none" id="PointOfInterest-backto-PointOfInterestType" style="stroke:#181818;stroke-width:1.0;stroke-dasharray:7.0,7.0;"/><polygon fill="#181818" points="1079.77,125.09,1080.0917,132.2939,1086.8652,134.7677,1086.5435,127.5638,1079.77,125.09" style="stroke:#181818;stroke-width:1.0;"/></g><!--reverse link PointOfInterest to Comment--><g id="link_PointOfInterest_Comment"><path codeLine="23" d="M1032.674,136.4738 C1023.474,164.0638 1015.43,188.21 1007.78,211.16 " fill="none" id="PointOfInterest-backto-Comment" style="stroke:#181818;stroke-width:1.0;stroke-dasharray:7.0,7.0;"/><polygon fill="#181818" points="1036.47,125.09,1030.7774,129.5166,1032.674,136.4738,1038.3666,132.0472,1036.47,125.09" style="stroke:#181818;stroke-width:1.0;"/></g><!--reverse link DatabaseConnection to PointOfInterestService--><g id="link_DatabaseConnection_PointOfInterestService"><path codeLine="24" d="M782,119.61 C782,147.71 782,182.89 782,211.12 " fill="none" id="DatabaseConnection-backto-PointOfInterestService" style="stroke:#181818;stroke-width:1.0;stroke-dasharray:7.0,7.0;"/><polygon fill="#181818" points="782,107.61,778,113.61,782,119.61,786,113.61,782,107.61" style="stroke:#181818;stroke-width:1.0;"/></g><!--reverse link PointOfInterestService to CommentServlet--><g id="link_PointOfInterestService_CommentServlet"><path codeLine="25" d="M862.575,263.311 C889.285,271.971 908.75,277.95 937,286 C1012.61,307.55 1097.76,329.12 1166.88,345.94 " fill="none" id="PointOfInterestService-backto-CommentServlet" style="stroke:#181818;stroke-width:1.0;stroke-dasharray:7.0,7.0;"/><polygon fill="#181818" points="851.16,259.61,855.6338,265.2655,862.575,263.311,858.1012,257.6555,851.16,259.61" style="stroke:#181818;stroke-width:1.0;"/></g><!--reverse link PointOfInterestService to PointOfInterestsServlet--><g id="link_PointOfInterestService_PointOfInterestsServlet"><path codeLine="26" d="M686.044,262.7119 C600.044,286.2019 477.53,319.67 381.23,345.98 " fill="none" id="PointOfInterestService-backto-PointOfInterestsServlet" style="stroke:#181818;stroke-width:1.0;stroke-dasharray:7.0,7.0;"/><polygon fill="#181818" points="697.62,259.55,690.7781,257.2723,686.044,262.7119,692.886,264.9896,697.62,259.55" style="stroke:#181818;stroke-width:1.0;"/></g><!--reverse link PointOfInterestService to PointOfInterestServlet--><g id="link_PointOfInterestService_PointOfInterestServlet"><path codeLine="27" d="M782,271.55 C782,295.04 782,319.67 782,345.98 " fill="none" id="PointOfInterestService-backto-PointOfInterestServlet" style="stroke:#181818;stroke-width:1.0;stroke-dasharray:7.0,7.0;"/><polygon fill="#181818" points="782,259.55,778,265.55,782,271.55,786,265.55,782,259.55" style="stroke:#181818;stroke-width:1.0;"/></g><!--link CommentServlet to HttpServlet--><g id="link_CommentServlet_HttpServlet"><path codeLine="28" d="M1237.81,412.03 C1131.18,464.42 938.2151,559.2419 844.9651,605.0619 " fill="none" id="CommentServlet-to-HttpServlet" style="stroke:#181818;stroke-width:1.0;"/><polygon fill="none" points="828.81,613,847.6111,610.4469,842.3191,599.6769,828.81,613" style="stroke:#181818;stroke-width:1.0;"/></g><!--link PointOfInterestServlet to HttpServlet--><g id="link_PointOfInterestServlet_HttpServlet"><path codeLine="29" d="M782,412.16 C782,464.54 782,549 782,594.85 " fill="none" id="PointOfInterestServlet-to-HttpServlet" style="stroke:#181818;stroke-width:1.0;"/><polygon fill="none" points="782,612.85,788,594.85,776,594.85,782,612.85" style="stroke:#181818;stroke-width:1.0;"/></g><!--link PointOfInterestsServlet to HttpServlet--><g id="link_PointOfInterestsServlet_HttpServlet"><path codeLine="30" d="M328.82,412.03 C434.83,464.42 626.6132,559.2047 719.3232,605.0247 " fill="none" id="PointOfInterestsServlet-to-HttpServlet" style="stroke:#181818;stroke-width:1.0;"/><polygon fill="none" points="735.46,613,721.9817,599.6458,716.6648,610.4037,735.46,613" style="stroke:#181818;stroke-width:1.0;"/></g><!--SRC=[jLBRIiGm47tFLmHyKR7vW4KMIXMxK6nfwmV4x8YHRL8xiqLH_ztUTjajJT4Lyv3Bd9bpCXUraOXSsK84jYZ040EpBJf3OhMX-6bb22f0ojzBu1-CDokCisIL-r7tI6-p_C5F_VkyUsP16CSH-s9gppmY6aWYZNGzY2uNhMDxmmwRa5vmQlOZtXj9yb4Y1DOOKAIjSOjcKDLQWTi1MuyDx7vtnckhrtnjxu3EGw9oW5DutROvLFrvnOymBAr1QC3-SZ5NXd_N6shhq4ai_b5eehENGhX6PzP_DtlJNNNHxdlgXCO2Gpu_YN2CnmcXXv6ZddYUzxdaBxAMRm9xctXkwYuEYizcPkVKUFmDmJS0]--></g></svg>