<?xml version="1.0" encoding="us-ascii" standalone="no"?><svg xmlns="http://www.w3.org/2000/svg" xmlns:xlink="http://www.w3.org/1999/xlink" contentStyleType="text/css" height="610px" preserveAspectRatio="none" style="width:899px;height:610px;background:#FFFFFF;" version="1.1" viewBox="0 0 899 610" width="899px" zoomAndPan="magnify"><defs/><g><!--cluster com--><g id="cluster_com"><path d="M8.5,6 L38.5,6 A3.75,3.75 0 0 1 41,8.5 L48,29.6094 L889.5,29.6094 A2.5,2.5 0 0 1 892,32.1094 L892,600.5 A2.5,2.5 0 0 1 889.5,603 L8.5,603 A2.5,2.5 0 0 1 6,600.5 L6,8.5 A2.5,2.5 0 0 1 8.5,6 " fill="none" style="stroke:#000000;stroke-width:1.5;"/><line style="stroke:#000000;stroke-width:1.5;" x1="6" x2="48" y1="29.6094" y2="29.6094"/><text fill="#000000" font-family="sans-serif" font-size="14" font-weight="bold" lengthAdjust="spacing" textLength="29" x="10" y="22.5332">com</text></g><!--class Comment--><g id="elem_Comment"><rect codeLine="1" fill="#F1F1F1" height="118.4375" id="Comment" rx="2.5" ry="2.5" style="stroke:#181818;stroke-width:0.5;" width="194" x="22" y="238"/><ellipse cx="84.75" cy="254" fill="#ADD1B2" rx="11" ry="11" style="stroke:#181818;stroke-width:1.0;"/><path d="M87.5156,249.875 Q87.6719,249.6563 87.8594,249.5469 Q88.0469,249.4375 88.2656,249.4375 Q88.6406,249.4375 88.875,249.7031 Q89.1094,249.9531 89.1094,250.5625 L89.1094,252.0156 Q89.1094,252.625 88.875,252.8906 Q88.6406,253.1563 88.2656,253.1563 Q87.9219,253.1563 87.7188,252.9531 Q87.5156,252.7656 87.4063,252.25 Q87.3594,251.8906 87.1719,251.7031 Q86.8438,251.3281 86.2344,251.1094 Q85.625,250.8906 85,250.8906 Q84.2344,250.8906 83.5938,251.2188 Q82.9688,251.5469 82.4688,252.2969 Q81.9844,253.0469 81.9844,254.0781 L81.9844,255.1719 Q81.9844,256.4063 82.875,257.2344 Q83.7656,258.0469 85.3594,258.0469 Q86.2969,258.0469 86.9531,257.7969 Q87.3438,257.6406 87.7656,257.2031 Q88.0313,256.9375 88.1719,256.8594 Q88.3281,256.7813 88.5313,256.7813 Q88.8594,256.7813 89.1094,257.0469 Q89.375,257.2969 89.375,257.6406 Q89.375,257.9844 89.0313,258.3906 Q88.5313,258.9688 87.7344,259.2969 Q86.6563,259.75 85.3594,259.75 Q83.8438,259.75 82.6406,259.125 Q81.6563,258.625 80.9688,257.5625 Q80.2813,256.4844 80.2813,255.2031 L80.2813,254.0469 Q80.2813,252.7188 80.8906,251.5781 Q81.5156,250.4219 82.6094,249.8125 Q83.7031,249.1875 84.9375,249.1875 Q85.6719,249.1875 86.3125,249.3594 Q86.9688,249.5156 87.5156,249.875 Z " fill="#000000"/><text fill="#000000" font-family="sans-serif" font-size="14" lengthAdjust="spacing" textLength="60" x="105.25" y="259.7285">Comment</text><line style="stroke:#181818;stroke-width:0.5;" x1="23" x2="215" y1="270" y2="270"/><rect fill="none" height="6" style="stroke:#C82930;stroke-width:1.0;" width="6" x="30" y="281.3047"/><text fill="#000000" font-family="sans-serif" font-size="14" lengthAdjust="spacing" textLength="34" x="42" y="288.5332">int: id</text><rect fill="none" height="6" style="stroke:#C82930;stroke-width:1.0;" width="6" x="30" y="298.9141"/><text fill="#000000" font-family="sans-serif" font-size="14" lengthAdjust="spacing" textLength="67" x="42" y="306.1426">String: text</text><rect fill="none" height="6" style="stroke:#C82930;stroke-width:1.0;" width="6" x="30" y="316.5234"/><text fill="#000000" font-family="sans-serif" font-size="14" lengthAdjust="spacing" textLength="164" x="42" y="323.752">LocalDateTime: createdAt</text><rect fill="none" height="6" style="stroke:#C82930;stroke-width:1.0;" width="6" x="30" y="334.1328"/><text fill="#000000" font-family="sans-serif" font-size="14" lengthAdjust="spacing" textLength="168" x="42" y="341.3613">LocalDateTime: updatedAt</text><line style="stroke:#181818;stroke-width:0.5;" x1="23" x2="215" y1="348.4375" y2="348.4375"/></g><!--class Main--><g id="elem_Main"><rect codeLine="7" fill="#F1F1F1" height="65.6094" id="Main" rx="2.5" ry="2.5" style="stroke:#181818;stroke-width:0.5;" width="173" x="573.5" y="50.5"/><ellipse cx="640.75" cy="66.5" fill="#ADD1B2" rx="11" ry="11" style="stroke:#181818;stroke-width:1.0;"/><path d="M643.5156,62.375 Q643.6719,62.1563 643.8594,62.0469 Q644.0469,61.9375 644.2656,61.9375 Q644.6406,61.9375 644.875,62.2031 Q645.1094,62.4531 645.1094,63.0625 L645.1094,64.5156 Q645.1094,65.125 644.875,65.3906 Q644.6406,65.6563 644.2656,65.6563 Q643.9219,65.6563 643.7188,65.4531 Q643.5156,65.2656 643.4063,64.75 Q643.3594,64.3906 643.1719,64.2031 Q642.8438,63.8281 642.2344,63.6094 Q641.625,63.3906 641,63.3906 Q640.2344,63.3906 639.5938,63.7188 Q638.9688,64.0469 638.4688,64.7969 Q637.9844,65.5469 637.9844,66.5781 L637.9844,67.6719 Q637.9844,68.9063 638.875,69.7344 Q639.7656,70.5469 641.3594,70.5469 Q642.2969,70.5469 642.9531,70.2969 Q643.3438,70.1406 643.7656,69.7031 Q644.0313,69.4375 644.1719,69.3594 Q644.3281,69.2813 644.5313,69.2813 Q644.8594,69.2813 645.1094,69.5469 Q645.375,69.7969 645.375,70.1406 Q645.375,70.4844 645.0313,70.8906 Q644.5313,71.4688 643.7344,71.7969 Q642.6563,72.25 641.3594,72.25 Q639.8438,72.25 638.6406,71.625 Q637.6563,71.125 636.9688,70.0625 Q636.2813,68.9844 636.2813,67.7031 L636.2813,66.5469 Q636.2813,65.2188 636.8906,64.0781 Q637.5156,62.9219 638.6094,62.3125 Q639.7031,61.6875 640.9375,61.6875 Q641.6719,61.6875 642.3125,61.8594 Q642.9688,62.0156 643.5156,62.375 Z " fill="#000000"/><text fill="#000000" font-family="sans-serif" font-size="14" lengthAdjust="spacing" textLength="30" x="661.25" y="72.2285">Main</text><line style="stroke:#181818;stroke-width:0.5;" x1="574.5" x2="745.5" y1="82.5" y2="82.5"/><line style="stroke:#181818;stroke-width:0.5;" x1="574.5" x2="745.5" y1="90.5" y2="90.5"/><ellipse cx="584.5" cy="104.8047" fill="#84BE84" rx="3" ry="3" style="stroke:#038048;stroke-width:1.0;"/><text fill="#000000" font-family="sans-serif" font-size="14" lengthAdjust="spacing" text-decoration="underline" textLength="147" x="593.5" y="109.0332">void main(String[] args)</text></g><!--class PointOfInterest--><g id="elem_PointOfInterest"><rect codeLine="10" fill="#F1F1F1" height="83.2188" id="PointOfInterest" rx="2.5" ry="2.5" style="stroke:#181818;stroke-width:0.5;" width="196" x="127" y="42"/><ellipse cx="173.75" cy="58" fill="#ADD1B2" rx="11" ry="11" style="stroke:#181818;stroke-width:1.0;"/><path d="M176.5156,53.875 Q176.6719,53.6563 176.8594,53.5469 Q177.0469,53.4375 177.2656,53.4375 Q177.6406,53.4375 177.875,53.7031 Q178.1094,53.9531 178.1094,54.5625 L178.1094,56.0156 Q178.1094,56.625 177.875,56.8906 Q177.6406,57.1563 177.2656,57.1563 Q176.9219,57.1563 176.7188,56.9531 Q176.5156,56.7656 176.4063,56.25 Q176.3594,55.8906 176.1719,55.7031 Q175.8438,55.3281 175.2344,55.1094 Q174.625,54.8906 174,54.8906 Q173.2344,54.8906 172.5938,55.2188 Q171.9688,55.5469 171.4688,56.2969 Q170.9844,57.0469 170.9844,58.0781 L170.9844,59.1719 Q170.9844,60.4063 171.875,61.2344 Q172.7656,62.0469 174.3594,62.0469 Q175.2969,62.0469 175.9531,61.7969 Q176.3438,61.6406 176.7656,61.2031 Q177.0313,60.9375 177.1719,60.8594 Q177.3281,60.7813 177.5313,60.7813 Q177.8594,60.7813 178.1094,61.0469 Q178.375,61.2969 178.375,61.6406 Q178.375,61.9844 178.0313,62.3906 Q177.5313,62.9688 176.7344,63.2969 Q175.6563,63.75 174.3594,63.75 Q172.8438,63.75 171.6406,63.125 Q170.6563,62.625 169.9688,61.5625 Q169.2813,60.4844 169.2813,59.2031 L169.2813,58.0469 Q169.2813,56.7188 169.8906,55.5781 Q170.5156,54.4219 171.6094,53.8125 Q172.7031,53.1875 173.9375,53.1875 Q174.6719,53.1875 175.3125,53.3594 Q175.9688,53.5156 176.5156,53.875 Z " fill="#000000"/><text fill="#000000" font-family="sans-serif" font-size="14" lengthAdjust="spacing" textLength="94" x="194.25" y="63.7285">PointOfInterest</text><line style="stroke:#181818;stroke-width:0.5;" x1="128" x2="322" y1="74" y2="74"/><rect fill="none" height="6" style="stroke:#C82930;stroke-width:1.0;" width="6" x="135" y="85.3047"/><text fill="#000000" font-family="sans-serif" font-size="14" lengthAdjust="spacing" textLength="161" x="147" y="92.5332">PointOfInterestType: type</text><rect fill="none" height="6" style="stroke:#C82930;stroke-width:1.0;" width="6" x="135" y="102.9141"/><text fill="#000000" font-family="sans-serif" font-size="14" lengthAdjust="spacing" textLength="170" x="147" y="110.1426">List&lt;Comment&gt;: comments</text><line style="stroke:#181818;stroke-width:0.5;" x1="128" x2="322" y1="117.2188" y2="117.2188"/></g><!--class PointOfInterestConsoleService--><g id="elem_PointOfInterestConsoleService"><rect codeLine="14" fill="#F1F1F1" height="224.0938" id="PointOfInterestConsoleService" rx="2.5" ry="2.5" style="stroke:#181818;stroke-width:0.5;" width="432" x="444" y="185"/><ellipse cx="559.25" cy="201" fill="#ADD1B2" rx="11" ry="11" style="stroke:#181818;stroke-width:1.0;"/><path d="M562.0156,196.875 Q562.1719,196.6563 562.3594,196.5469 Q562.5469,196.4375 562.7656,196.4375 Q563.1406,196.4375 563.375,196.7031 Q563.6094,196.9531 563.6094,197.5625 L563.6094,199.0156 Q563.6094,199.625 563.375,199.8906 Q563.1406,200.1563 562.7656,200.1563 Q562.4219,200.1563 562.2188,199.9531 Q562.0156,199.7656 561.9063,199.25 Q561.8594,198.8906 561.6719,198.7031 Q561.3438,198.3281 560.7344,198.1094 Q560.125,197.8906 559.5,197.8906 Q558.7344,197.8906 558.0938,198.2188 Q557.4688,198.5469 556.9688,199.2969 Q556.4844,200.0469 556.4844,201.0781 L556.4844,202.1719 Q556.4844,203.4063 557.375,204.2344 Q558.2656,205.0469 559.8594,205.0469 Q560.7969,205.0469 561.4531,204.7969 Q561.8438,204.6406 562.2656,204.2031 Q562.5313,203.9375 562.6719,203.8594 Q562.8281,203.7813 563.0313,203.7813 Q563.3594,203.7813 563.6094,204.0469 Q563.875,204.2969 563.875,204.6406 Q563.875,204.9844 563.5313,205.3906 Q563.0313,205.9688 562.2344,206.2969 Q561.1563,206.75 559.8594,206.75 Q558.3438,206.75 557.1406,206.125 Q556.1563,205.625 555.4688,204.5625 Q554.7813,203.4844 554.7813,202.2031 L554.7813,201.0469 Q554.7813,199.7188 555.3906,198.5781 Q556.0156,197.4219 557.1094,196.8125 Q558.2031,196.1875 559.4375,196.1875 Q560.1719,196.1875 560.8125,196.3594 Q561.4688,196.5156 562.0156,196.875 Z " fill="#000000"/><text fill="#000000" font-family="sans-serif" font-size="14" lengthAdjust="spacing" textLength="193" x="579.75" y="206.7285">PointOfInterestConsoleService</text><line style="stroke:#181818;stroke-width:0.5;" x1="445" x2="875" y1="217" y2="217"/><rect fill="none" height="6" style="stroke:#C82930;stroke-width:1.0;" width="6" x="452" y="228.3047"/><text fill="#000000" font-family="sans-serif" font-size="14" lengthAdjust="spacing" textLength="285" x="464" y="235.5332">PoinOfInterestService: pointOfInterestService</text><line style="stroke:#181818;stroke-width:0.5;" x1="445" x2="875" y1="242.6094" y2="242.6094"/><ellipse cx="455" cy="256.9141" fill="#84BE84" rx="3" ry="3" style="stroke:#038048;stroke-width:1.0;"/><text fill="#000000" font-family="sans-serif" font-size="14" lengthAdjust="spacing" textLength="259" x="464" y="261.1426">List&lt;PointOfInterest&gt; searchByLocation()</text><ellipse cx="455" cy="274.5234" fill="#84BE84" rx="3" ry="3" style="stroke:#038048;stroke-width:1.0;"/><text fill="#000000" font-family="sans-serif" font-size="14" lengthAdjust="spacing" textLength="237" x="464" y="278.752">List&lt;PointOfInterest&gt; searchByType()</text><rect fill="#F24D5C" height="6" style="stroke:#C82930;stroke-width:1.0;" width="6" x="452" y="289.1328"/><text fill="#000000" font-family="sans-serif" font-size="14" lengthAdjust="spacing" textLength="406" x="464" y="296.3613">int iteratePointOfInterests(List&lt;PointOfInterest&gt; pointOfInterests)</text><rect fill="#F24D5C" height="6" style="stroke:#C82930;stroke-width:1.0;" width="6" x="452" y="306.7422"/><text fill="#000000" font-family="sans-serif" font-size="14" lengthAdjust="spacing" textLength="109" x="464" y="313.9707">int findById(int id)</text><rect fill="#F24D5C" height="6" style="stroke:#C82930;stroke-width:1.0;" width="6" x="452" y="324.3516"/><text fill="#000000" font-family="sans-serif" font-size="14" lengthAdjust="spacing" textLength="253" x="464" y="331.5801">showPointOfInterest(PointOfInterest poi)</text><rect fill="#F24D5C" height="6" style="stroke:#C82930;stroke-width:1.0;" width="6" x="452" y="341.9609"/><text fill="#000000" font-family="sans-serif" font-size="14" lengthAdjust="spacing" textLength="272" x="464" y="349.1895">void likePointOfInterest(PointOfInterest poi)</text><rect fill="#F24D5C" height="6" style="stroke:#C82930;stroke-width:1.0;" width="6" x="452" y="359.5703"/><text fill="#000000" font-family="sans-serif" font-size="14" lengthAdjust="spacing" textLength="256" x="464" y="366.7988">void showComments(PointOfInterest poi)</text><rect fill="#F24D5C" height="6" style="stroke:#C82930;stroke-width:1.0;" width="6" x="452" y="377.1797"/><text fill="#000000" font-family="sans-serif" font-size="14" lengthAdjust="spacing" textLength="241" x="464" y="384.4082">void addComment(PointOfInterest poi)</text><rect fill="#F24D5C" height="6" style="stroke:#C82930;stroke-width:1.0;" width="6" x="452" y="394.7891"/><text fill="#000000" font-family="sans-serif" font-size="14" lengthAdjust="spacing" textLength="261" x="464" y="402.0176">void updateComment(PointOfInterest poi)</text></g><!--class PointOfInterestService--><g id="elem_PointOfInterestService"><rect codeLine="27" fill="#F1F1F1" height="118.4375" id="PointOfInterestService" rx="2.5" ry="2.5" style="stroke:#181818;stroke-width:0.5;" width="420" x="450" y="469"/><ellipse cx="585.25" cy="485" fill="#ADD1B2" rx="11" ry="11" style="stroke:#181818;stroke-width:1.0;"/><path d="M588.0156,480.875 Q588.1719,480.6563 588.3594,480.5469 Q588.5469,480.4375 588.7656,480.4375 Q589.1406,480.4375 589.375,480.7031 Q589.6094,480.9531 589.6094,481.5625 L589.6094,483.0156 Q589.6094,483.625 589.375,483.8906 Q589.1406,484.1563 588.7656,484.1563 Q588.4219,484.1563 588.2188,483.9531 Q588.0156,483.7656 587.9063,483.25 Q587.8594,482.8906 587.6719,482.7031 Q587.3438,482.3281 586.7344,482.1094 Q586.125,481.8906 585.5,481.8906 Q584.7344,481.8906 584.0938,482.2188 Q583.4688,482.5469 582.9688,483.2969 Q582.4844,484.0469 582.4844,485.0781 L582.4844,486.1719 Q582.4844,487.4063 583.375,488.2344 Q584.2656,489.0469 585.8594,489.0469 Q586.7969,489.0469 587.4531,488.7969 Q587.8438,488.6406 588.2656,488.2031 Q588.5313,487.9375 588.6719,487.8594 Q588.8281,487.7813 589.0313,487.7813 Q589.3594,487.7813 589.6094,488.0469 Q589.875,488.2969 589.875,488.6406 Q589.875,488.9844 589.5313,489.3906 Q589.0313,489.9688 588.2344,490.2969 Q587.1563,490.75 585.8594,490.75 Q584.3438,490.75 583.1406,490.125 Q582.1563,489.625 581.4688,488.5625 Q580.7813,487.4844 580.7813,486.2031 L580.7813,485.0469 Q580.7813,483.7188 581.3906,482.5781 Q582.0156,481.4219 583.1094,480.8125 Q584.2031,480.1875 585.4375,480.1875 Q586.1719,480.1875 586.8125,480.3594 Q587.4688,480.5156 588.0156,480.875 Z " fill="#000000"/><text fill="#000000" font-family="sans-serif" font-size="14" lengthAdjust="spacing" textLength="141" x="605.75" y="490.7285">PointOfInterestService</text><line style="stroke:#181818;stroke-width:0.5;" x1="451" x2="869" y1="501" y2="501"/><rect fill="none" height="6" style="stroke:#C82930;stroke-width:1.0;" width="6" x="458" y="512.3047"/><text fill="#000000" font-family="sans-serif" font-size="14" lengthAdjust="spacing" textLength="240" x="470" y="519.5332">List&lt;PointOfInterest&gt;: pointOfInterests</text><line style="stroke:#181818;stroke-width:0.5;" x1="451" x2="869" y1="526.6094" y2="526.6094"/><ellipse cx="461" cy="540.9141" fill="#84BE84" rx="3" ry="3" style="stroke:#038048;stroke-width:1.0;"/><text fill="#000000" font-family="sans-serif" font-size="14" lengthAdjust="spacing" textLength="188" x="470" y="545.1426">PointOfInterets findById(int id)</text><ellipse cx="461" cy="558.5234" fill="#84BE84" rx="3" ry="3" style="stroke:#038048;stroke-width:1.0;"/><text fill="#000000" font-family="sans-serif" font-size="14" lengthAdjust="spacing" textLength="394" x="470" y="562.752">List&lt;PointOfInterest&gt; searchByType(PointOfInterestType type)</text><ellipse cx="461" cy="576.1328" fill="#84BE84" rx="3" ry="3" style="stroke:#038048;stroke-width:1.0;"/><text fill="#000000" font-family="sans-serif" font-size="14" lengthAdjust="spacing" textLength="349" x="470" y="580.3613">List&lt;PointOfInterest&gt; searchByLocation(String location)</text></g><!--class PointOfInterestType--><g id="elem_PointOfInterestType"><rect codeLine="33" fill="#F1F1F1" height="100.8281" id="PointOfInterestType" rx="2.5" ry="2.5" style="stroke:#181818;stroke-width:0.5;" width="158" x="251" y="246.5"/><ellipse cx="266" cy="262.5" fill="#EB937F" rx="11" ry="11" style="stroke:#181818;stroke-width:1.0;"/><path d="M264.8594,263.2969 L264.8594,265.7969 L269.1875,265.7969 L269.1875,264.875 Q269.1875,264.2656 269.4219,264 Q269.6719,263.7344 270.0469,263.7344 Q270.4219,263.7344 270.6563,264 Q270.8906,264.2656 270.8906,264.875 L270.8906,267.5 L262.8906,267.5 Q262.2656,267.5 262,267.2656 Q261.75,267.0313 261.75,266.6406 Q261.75,266.2656 262.0156,266.0313 Q262.2813,265.7969 262.8906,265.7969 L263.1563,265.7969 L263.1563,259.1406 L262.8906,259.1406 Q262.2656,259.1406 262,258.9063 Q261.75,258.6719 261.75,258.2813 Q261.75,257.9063 262,257.6719 Q262.2656,257.4375 262.8906,257.4375 L270.5156,257.4375 L270.5156,260.0313 Q270.5156,260.6406 270.2813,260.9063 Q270.0625,261.1563 269.6719,261.1563 Q269.2969,261.1563 269.0625,260.9063 Q268.8281,260.6406 268.8281,260.0313 L268.8281,259.1406 L264.8594,259.1406 L264.8594,261.5938 L266.3438,261.5938 Q266.3438,260.9375 266.4688,260.75 Q266.7344,260.3438 267.2031,260.3438 Q267.5781,260.3438 267.8125,260.6094 Q268.0469,260.8594 268.0469,261.4688 L268.0469,263.4375 Q268.0469,263.9844 267.9219,264.1719 Q267.6563,264.5625 267.2031,264.5625 Q266.7344,264.5625 266.4688,264.1563 Q266.3438,263.9688 266.3438,263.2969 L264.8594,263.2969 Z " fill="#000000"/><text fill="#000000" font-family="sans-serif" font-size="14" lengthAdjust="spacing" textLength="126" x="280" y="268.2285">PointOfInterestType</text><line style="stroke:#181818;stroke-width:0.5;" x1="252" x2="408" y1="278.5" y2="278.5"/><text fill="#000000" font-family="sans-serif" font-size="14" lengthAdjust="spacing" textLength="67" x="257" y="297.0332">HOSPITAL</text><text fill="#000000" font-family="sans-serif" font-size="14" lengthAdjust="spacing" textLength="92" x="257" y="314.6426">RESTUARANT</text><text fill="#000000" font-family="sans-serif" font-size="14" lengthAdjust="spacing" textLength="58" x="257" y="332.252">SCHOOL</text><line style="stroke:#181818;stroke-width:0.5;" x1="252" x2="408" y1="339.3281" y2="339.3281"/></g><!--reverse link PointOfInterest to Comment--><g id="link_PointOfInterest_Comment"><path codeLine="38" d="M199.184,136.0084 C183.184,167.9384 166.09,202.04 148.19,237.75 " fill="none" id="PointOfInterest-backto-Comment" style="stroke:#181818;stroke-width:1.0;stroke-dasharray:7.0,7.0;"/><polygon fill="#181818" points="204.56,125.28,198.2959,128.8522,199.184,136.0084,205.4482,132.4362,204.56,125.28" style="stroke:#181818;stroke-width:1.0;"/><text fill="#000000" font-family="sans-serif" font-size="13" lengthAdjust="spacing" textLength="91" x="103.0508" y="146.7194">have comments</text></g><!--reverse link PointOfInterest to PointOfInterestType--><g id="link_PointOfInterest_PointOfInterestType"><path codeLine="39" d="M250.5854,136.0286 C267.7454,170.5986 287.08,209.55 305.38,246.41 " fill="none" id="PointOfInterest-backto-PointOfInterestType" style="stroke:#181818;stroke-width:1.0;stroke-dasharray:7.0,7.0;"/><polygon fill="#181818" points="245.25,125.28,244.3348,132.4328,250.5854,136.0286,251.5006,128.8758,245.25,125.28" style="stroke:#181818;stroke-width:1.0;"/><text fill="#000000" font-family="sans-serif" font-size="13" lengthAdjust="spacing" textLength="58" x="253.0992" y="146.7194">have Type</text></g><!--reverse link PointOfInterestConsoleService to PointOfInterestService--><g id="link_PointOfInterestConsoleService_PointOfInterestService"><path codeLine="40" d="M660,421.15 C660,441.77 660,450.54 660,468.78 " fill="none" id="PointOfInterestConsoleService-backto-PointOfInterestService" style="stroke:#181818;stroke-width:1.0;stroke-dasharray:7.0,7.0;"/><polygon fill="#181818" points="660,409.15,656,415.15,660,421.15,664,415.15,660,409.15" style="stroke:#181818;stroke-width:1.0;"/></g><!--reverse link Main to PointOfInterestConsoleService--><g id="link_Main_PointOfInterestConsoleService"><path codeLine="41" d="M660,128.62 C660,147.23 660,159.87 660,184.91 " fill="none" id="Main-backto-PointOfInterestConsoleService" style="stroke:#181818;stroke-width:1.0;stroke-dasharray:7.0,7.0;"/><polygon fill="#181818" points="660,116.62,656,122.62,660,128.62,664,122.62,660,116.62" style="stroke:#181818;stroke-width:1.0;"/></g><!--SRC=[bLHTRu8m57ttLpG-uPRv0yXYWcw99cuOOK_B7fgsQZDe3RUw6UD_Nqih2gkYF13QU-uvznEIOG14PDuVoJndGg5z1-ddYGiL8axj8L455yiGAVQhxCrK4fozOCLIdhCGaOBfRnhvhPirTTP3XrI2RvWBf_Qu1uKL9mUqbPoYN5i2g_dvXN2nX5xDSoPrTF5Y8XGh65GXDwxJtLfhA_rsGN5GpoxBGMY8p1TSOnv90J9Z2IksdB0pcHF4sKAqhhkwUvjUATtW7Y1Wk22huSvKIt4fWjujQ9EMGvec8Qu1kheDF0H-baQKS4Qqu88ETnCQbApKMM0bVneiGRF-cjIXo_Pb_9lTwM9KN6kW3OifTT0sf9sxLl2r2N1jF8wOjwZ_UW-sZpMS0d-1R-csPx3BkUxTDLrseL3cpcQbcDZalgnB1PloE4vcapIQbeVvQv9-HFFeFIsFoMWSnrDJFizITbTuowejwwA7Vl_yFtF5nwYVy9xGEgshUidxk9NL_-S2hixs1m00]--></g></svg>